<svg xmlns="http://www.w3.org/2000/svg" viewBox="0 0 512 512" width="512" height="512">
  <rect width="512" height="512" rx="128" fill="url(#blueGrad)"/>
  <defs>
    <linearGradient id="blueGrad" x1="0%" y1="0%" x2="100%" y2="100%">
      <stop offset="0%" stop-color="#2563EB"/>
      <stop offset="100%" stop-color="#1D4ED8"/>
    </linearGradient>
  </defs>
  <g transform="translate(128, 128)" stroke-linecap="round" stroke-linejoin="round">
    <path d="M32 224V80a16 16 0 0 1 16-16h80a16 16 0 0 1 16 16v144" fill="none" stroke="#FFFFFF" stroke-width="20"/>
    <path d="M144 224V144a16 16 0 0 1 16-16h64a16 16 0 0 1 16 16v80" fill="none" stroke="#FFFFFF" stroke-width="20"/>
    <path d="M16 224h240" stroke="#FFFFFF" stroke-width="20"/>
    <circle cx="72" cy="112" r="10" fill="#FFFFFF"/>
    <circle cx="104" cy="112" r="10" fill="#FFFFFF"/>
    <circle cx="72" cy="160" r="10" fill="#FFFFFF"/>
    <circle cx="104" cy="160" r="10" fill="#FFFFFF"/>
    <path d="M200 80l48-48" stroke="#10B981" stroke-width="24"/>
    <path d="M192 32h56v56" stroke="#10B981" stroke-width="24"/>
  </g>
</svg>
