<svg xmlns="http://www.w3.org/2000/svg" viewBox="0 0 512 512" width="100%" height="100%">
  <rect width="512" height="512" rx="128" fill="url(#blueGrad)"/>
  <defs>
    <linearGradient id="blueGrad" x1="0%" y1="0%" x2="100%" y2="100%">
      <stop offset="0%" stop-color="#2563EB"/>
      <stop offset="100%" stop-color="#1D4ED8"/>
    </linearGradient>
  </defs>
  <g transform="translate(96, 96) scale(13.33)">
    <!-- Wallet -->
    <path d="M19 7-[2] 0 0 0-2-2H5a2 2 0 0 0-2 2v10a2 2 0 0 0 2 2h14a2 2 0 0 0 2-2V9a2 2 0 0 0-2-2h-2" fill="none" stroke="#FFFFFF" stroke-width="2" stroke-linecap="round" stroke-linejoin="round"/>
    <path d="M3 7s0-2 2-2h12s2 0 2 2" fill="none" stroke="#FFFFFF" stroke-width="2" stroke-linecap="round" stroke-linejoin="round"/>
    <circle cx="16" cy="12" r="1" fill="#FFFFFF"/>
    <!-- Upward Arrow -->
    <path d="M12 17V9" stroke="#10B981" stroke-width="2.5" stroke-linecap="round"/>
    <path d="m8 13 4-4 4 4" stroke="#10B981" stroke-width="2.5" stroke-linecap="round" stroke-linejoin="round"/>
  </g>
</svg>
